<svg width="138" height="111" fill="none" xmlns="http://www.w3.org/2000/svg"><path d="M137 .718H1v109.741h136V.718zM1 30.18h136" stroke="#000" stroke-width=".89" stroke-miterlimit="10"/><path d="M17.506 20.69a3.326 3.326 0 003.322-3.328 3.326 3.326 0 00-3.322-3.33 3.326 3.326 0 00-3.322 3.33 3.326 3.326 0 003.322 3.329zm16.892 0a3.326 3.326 0 003.323-3.328 3.326 3.326 0 00-3.323-3.33 3.326 3.326 0 00-3.322 3.33 3.326 3.326 0 003.322 3.329zm16.932 0a3.326 3.326 0 003.321-3.328 3.326 3.326 0 00-3.322-3.33 3.326 3.326 0 00-3.322 3.33 3.326 3.326 0 003.322 3.329z" fill="#000"/></svg>