<svg width="140" height="140" fill="none" xmlns="http://www.w3.org/2000/svg"><path d="M76.959 15.116c-1.192-.153-2.238-.55-3.138-1.192a5.967 5.967 0 01-1.98-2.466c-.42-.99-.557-2.065-.408-3.223.15-1.158.558-2.162 1.228-3.013a5.842 5.842 0 012.537-1.868c1.034-.404 2.147-.53 3.339-.376.966.124 1.827.406 2.582.846a5.444 5.444 0 011.835 1.727l-1.588 1.15c-.736-1.031-1.728-1.627-2.975-1.788-.81-.104-1.558-.017-2.245.26a3.799 3.799 0 00-1.689 1.274c-.44.583-.712 1.274-.815 2.072-.102.798-.014 1.535.264 2.21a3.917 3.917 0 001.31 1.678c.596.43 1.299.698 2.108.802 1.248.16 2.359-.17 3.333-.994l1.243 1.53a5.415 5.415 0 01-2.229 1.206c-.841.234-1.746.29-2.712.165zm14.977-1.486l-2.041-.847-1.922 4.632-2.01-.834 4.561-10.99 2.01.833-1.91 4.6 2.105.874 5.065-3.29 2.167.899-5.962 3.765 1.542 7.284-2.308-.958-1.297-5.967zm15.177 11.587l-4.691-3.66-2.619 1.45-1.796-1.4 11.541-6.09 1.716 1.338-3.083 12.687-1.823-1.422.755-2.903zm.49-1.817l1.431-5.482-4.956 2.732 3.525 2.75zm18.37 9.218l-9.525 7.133-1.314-1.755 3.592-2.69c-1.008-.647-1.814-1.374-2.419-2.182-.91-1.215-1.323-2.372-1.239-3.469.101-1.094.7-2.053 1.798-2.875l3.034-2.272 1.315 1.755-2.844 2.13c-.672.503-1.038 1.082-1.1 1.737-.061.655.18 1.345.723 2.07a6.952 6.952 0 002.256 1.964l4.409-3.301 1.314 1.755zm-1.305 17.937l-2.169-5.54-2.993-.088-.83-2.121 13.033.647.794 2.026-9.122 9.341-.843-2.153 2.13-2.112zm1.348-1.313l4.026-3.986-5.656-.177 1.63 4.163zm9.143 16.812l-.452-3.918-9.964 1.15-.252-2.179 9.964-1.15-.45-3.901 1.858-.214 1.153 9.997-1.857.215zm-2.755 12.224c-.193 1.415-.661 2.455-1.403 3.12-.733.678-1.723.932-2.97.762-1.302-.178-2.245-.73-2.828-1.656-.572-.924-.755-2.139-.549-3.643l.691-5.07 11.791 1.608-.294 2.156-3.992-.545-.446 3.268zm-6.052-1.289c-.117.854-.01 1.537.32 2.051.331.514.872.823 1.624.925 1.426.195 2.261-.595 2.503-2.37l.383-2.812-4.447-.607-.383 2.813zm-2.009 32.202l-10.058-6.359 1.162-1.839 8.479 5.359 3.297-5.216-8.478-5.36 1.163-1.839 10.058 6.359-5.623 8.895zm-9.126 10.016c-.766.691-1.545 1.164-2.336 1.42-.8.264-1.564.297-2.292.098-.728-.198-1.385-.621-1.969-1.269-.577-.639-.93-1.336-1.06-2.089-.122-.744-.011-1.501.334-2.269.336-.762.887-1.487 1.653-2.178l1.995-1.799-2.3-2.55 1.642-1.48 7.969 8.837-3.636 3.279zm-4.342-4.967c-.715.646-1.121 1.287-1.218 1.924-.097.636.108 1.237.617 1.801.508.564 1.084.83 1.728.799.643-.031 1.323-.369 2.038-1.014l1.919-1.73-3.165-3.51-1.919 1.73zm-18.17 7.926l-.851-1.646 7.926-4.101 5.469 10.569-7.715 3.992-.852-1.646 5.753-2.976-1.422-2.748-5.103 2.64-.836-1.615 5.103-2.641-1.508-2.914-5.964 3.086zm-9.89 7.601c-.747-.058-1.371-.29-1.874-.696-.51-.393-.843-.921-.998-1.583a2.753 2.753 0 01.253-1.979c.333-.614.849-1.147 1.546-1.601.686-.452 1.475-.782 2.37-.991a9.202 9.202 0 012.407-.231c.824.04 1.617.198 2.38.473l-.327 1.735a6.427 6.427 0 00-1.874-.399 6.844 6.844 0 00-1.9.165c-.872.203-1.555.543-2.048 1.02-.505.479-.688 1.016-.549 1.612.119.508.419.845.9 1.012.482.166 1.092.163 1.831-.01l2.698-.631.395 1.689-2.532.592c-.64.15-1.111.4-1.414.75-.302.35-.4.751-.294 1.203.126.541.472.902 1.039 1.084.555.185 1.213.188 1.975.01a6.113 6.113 0 001.551-.607 6.184 6.184 0 001.405-1.01l1.085 1.58a7.884 7.884 0 01-1.72 1.153 8.59 8.59 0 01-1.945.716c-.861.202-1.681.254-2.46.157-.79-.095-1.459-.34-2.005-.736a2.58 2.58 0 01-1.049-1.571c-.134-.574-.097-1.112.112-1.615.208-.502.556-.933 1.042-1.291zm-18.072-3.109l.045-1.852 8.922.213-.284 11.896-8.685-.207.045-1.853 6.475.155.074-3.093-5.745-.137.044-1.819 5.744.138.079-3.281-6.714-.16zm-18.253 6.097l3.424-11.396 2.117.636-1.468 4.884 5.894 1.771 1.468-4.885 2.116.636-3.424 11.397-2.117-.636 1.414-4.705-5.894-1.771-1.414 4.705-2.116-.636zm-14.262-9.649l3.349 2.083 5.297-8.518 1.862 1.159-5.297 8.517 3.335 2.074-.988 1.588-8.546-5.315.988-1.588zm-5.507-14.695l4.112 4.301 2.801-1.055 1.574 1.646-12.302 4.352-1.504-1.573 4.89-12.106 1.598 1.672-1.169 2.763zm-.748 1.726l-2.21 5.217 5.3-1.985-3.09-3.232zm-9.331-19.1l3.978-2.077.944 1.809-2.32 1.211 4.673 8.952-10.548 5.507-1.008-1.928 8.892-4.643-2.778-5.32-8.891 4.643-1.015-1.944 8.891-4.642-.818-1.568zM5.165 88.538L4.76 86.4l8.3-1.577-9.493-4.702-.384-2.021 11.691-2.221.406 2.138-8.283 1.573 9.476 4.706.384 2.021-11.69 2.221zM3.52 58.49c.153-1.158.555-2.162 1.205-3.013a5.666 5.666 0 012.447-1.905c.992-.406 2.066-.533 3.223-.38 1.157.154 2.162.556 3.013 1.206a5.786 5.786 0 011.884 2.479c.394.99.515 2.063.362 3.22-.14 1.056-.487 1.993-1.042 2.812a5.878 5.878 0 01-2.12 1.897c-.86.446-1.798.67-2.816.673l-.246 1.853 5.006.664-.286 2.157L2.353 68.59l.286-2.157 4.837.64.25-1.887A5.971 5.971 0 015.27 63.78a5.737 5.737 0 01-1.488-2.358c-.313-.921-.4-1.899-.263-2.932zm10.213 1.353a3.9 3.9 0 00-.26-2.058 3.697 3.697 0 00-1.28-1.593c-.585-.42-1.281-.684-2.09-.792-.81-.107-1.55-.033-2.225.22a3.697 3.697 0 00-1.651 1.205 3.9 3.9 0 00-.786 1.92 3.9 3.9 0 00.259 2.057c.27.63.698 1.161 1.28 1.593.585.42 1.282.684 2.09.791.81.108 1.551.034 2.225-.22a3.855 3.855 0 001.652-1.204c.427-.55.689-1.189.786-1.92z" fill="gray"/><path d="M13.684 33.046c.573-.857 1.212-1.507 1.917-1.95.71-.45 1.443-.67 2.198-.656.754.013 1.494.263 2.22.748.715.479 1.228 1.067 1.539 1.765.3.692.378 1.453.232 2.283-.14.82-.496 1.659-1.069 2.516l-1.493 2.233 2.855 1.909-1.229 1.837-9.892-6.615 2.722-4.07zm5.426 3.751c.535-.8.772-1.522.71-2.163-.062-.641-.408-1.173-1.04-1.595-.63-.422-1.255-.54-1.871-.352-.616.188-1.192.683-1.728 1.483l-1.436 2.148 3.929 2.627 1.436-2.148zm2.277-13.894l3.95-3.384c.964-.826 1.983-1.37 3.056-1.633 1.066-.271 2.1-.24 3.104.095.995.326 1.876.937 2.643 1.832.767.895 1.239 1.864 1.416 2.906.169 1.034.041 2.061-.383 3.081-.432 1.012-1.13 1.93-2.094 2.756l-3.95 3.384-7.742-9.037zm10.398 4.3c.663-.568 1.137-1.19 1.422-1.868.287-.693.365-1.387.233-2.08-.13-.71-.46-1.374-.991-1.993-.531-.62-1.133-1.044-1.807-1.273a3.461 3.461 0 00-2.09-.09c-.721.17-1.413.539-2.075 1.106l-2.195 1.88 5.308 6.198 2.195-1.88zM39.24 12.03l1.568 3.263 5.18-2.488.809 1.686-5.18 2.488 1.973 4.106-1.992.957-5.153-10.726 7.83-3.762.803 1.67-5.838 2.805z" fill="#333"/></svg>