<svg width="53" height="52" fill="none" xmlns="http://www.w3.org/2000/svg"><path d="M26.34 50.94c13.929 0 25.22-11.291 25.22-25.22C51.56 11.791 40.27.5 26.34.5 12.412.5 1.12 11.791 1.12 25.72c0 13.929 11.291 25.22 25.22 25.22z" stroke="#000" stroke-miterlimit="10"/><path d="M13.19 25.18c0-5.94 0-8.92 1.85-10.77 1.85-1.85 4.83-1.85 10.78-1.85h1c6 0 8.92 0 10.77 1.85 1.85 1.85 1.85 4.83 1.85 10.77v1.06c0 5.95 0 8.92-1.85 10.77-1.85 1.85-4.82 1.85-10.77 1.85h-1c-6 0-8.93 0-10.78-1.85-1.85-1.85-1.85-4.82-1.85-10.77v-1.06z" fill="#000"/><path fill-rule="evenodd" clip-rule="evenodd" d="M26.09 17.22c0 3.44-.28 5.38-1.57 6.67s-3.22 1.52-6.66 1.57v.51c3.44 0 5.37.27 6.66 1.56s1.52 3.23 1.57 6.67h.51c0-3.44.27-5.37 1.56-6.67 1.29-1.3 3.23-1.52 6.67-1.56v-.51c-3.44 0-5.38-.28-6.67-1.57s-1.52-3.23-1.56-6.67h-.51z" fill="#fff"/></svg>