<svg width="84" height="38" fill="none" xmlns="http://www.w3.org/2000/svg"><circle cx="70.848" cy="8.35" r="7.35" stroke="#000" stroke-width=".75"/><path d="M57.984 28.105c0-6.85 5.553-12.404 12.404-12.404v0c6.85 0 12.404 5.553 12.404 12.404v8.728H57.984v-8.728z" stroke="#000" stroke-width=".75"/><circle cx="42.365" cy="8.351" r="7.35" stroke="#000" stroke-width=".75"/><path d="M29.502 28.105c0-6.85 5.553-12.404 12.404-12.404v0c6.85 0 12.403 5.553 12.403 12.404v8.728H29.502v-8.728z" stroke="#000" stroke-width=".75"/><circle cx="13.882" cy="8.35" r="7.35" stroke="#000" stroke-width=".75"/><path d="M1.019 28.105c0-6.85 5.553-12.404 12.404-12.404v0c6.85 0 12.403 5.553 12.403 12.404v8.728H1.02v-8.728z" stroke="#000" stroke-width=".75"/></svg>