<svg width="52" height="52" fill="none" xmlns="http://www.w3.org/2000/svg"><path d="M26.11 50.94c13.929 0 25.22-11.291 25.22-25.22C51.33 11.791 40.04.5 26.11.5 12.182.5.89 11.791.89 25.72c0 13.929 11.291 25.22 25.22 25.22z" stroke="#000" stroke-miterlimit="10"/><path fill-rule="evenodd" clip-rule="evenodd" d="M26.11 10.54a15.19 15.19 0 10-.001 30.38 15.19 15.19 0 00.001-30.38zm-.59 21.72h-2.44v-5a7.582 7.582 0 00-.14-1.88 1.14 1.14 0 00-.49-.63 1.52 1.52 0 00-.88-.24 2 2 0 00-1.09.3 1.76 1.76 0 00-.7.91 5.507 5.507 0 00-.22 1.8v4.71h-2.44V18.85h2.46v5.16a3.609 3.609 0 014.35-1.09 2.59 2.59 0 011 .82c.227.333.387.706.47 1.1.096.618.136 1.244.12 1.87v5.55zm9.63 0h-2.44v-5a7.582 7.582 0 00-.14-1.88 1.24 1.24 0 00-.49-.63 1.55 1.55 0 00-.89-.24 2 2 0 00-1.08.3 1.76 1.76 0 00-.7.91 5.505 5.505 0 00-.22 1.8v4.71h-2.44V18.85h2.44v5.16a3.599 3.599 0 014.34-1.09 2.59 2.59 0 011 .82c.231.33.391.705.47 1.1a9.37 9.37 0 01.13 1.87l.02 5.55z" fill="#130E09"/></svg>