<svg width="52" height="52" fill="none" xmlns="http://www.w3.org/2000/svg"><path d="M25.927 51.034c13.71 0 24.825-11.116 24.825-24.828S39.637 1.378 25.926 1.378c-13.71 0-24.825 11.116-24.825 24.828s11.114 24.828 24.826 24.828z" stroke="#fff" stroke-miterlimit="10"/><path d="M32.817 14.393h-13.78a4.922 4.922 0 00-4.923 4.922v13.782a4.923 4.923 0 004.922 4.922h13.781a4.922 4.922 0 004.922-4.922V19.315a4.922 4.922 0 00-4.922-4.923zM21.99 33.096h-2.953V22.268h2.953v10.829zm-1.506-12.08a1.743 1.743 0 111.723-1.742 1.734 1.734 0 01-1.723 1.743zm13.29 12.08H30.82v-5.523c0-3.317-3.938-3.061-3.938 0v5.523h-2.953V22.268h2.953v1.772c1.379-2.55 6.891-2.737 6.891 2.442v6.615z" fill="#fff"/></svg>