<svg width="52" height="52" fill="none" xmlns="http://www.w3.org/2000/svg"><path d="M26.26 50.94c13.929 0 25.22-11.291 25.22-25.22C51.48 11.791 40.19.5 26.26.5 12.331.5 1.04 11.791 1.04 25.72c0 13.929 11.291 25.22 25.22 25.22z" stroke="#000" stroke-miterlimit="10"/><path d="M33.26 13.71h-14a5 5 0 00-5 5v14a4.999 4.999 0 005 5h14a5 5 0 005-5v-14a5 5 0 00-5-5zm-11 19h-3v-11h3v11zm-1.5-12.27a1.771 1.771 0 01-.367-3.505 1.77 1.77 0 012.117 1.745 1.75 1.75 0 01-1.75 1.76zm13.5 12.27h-3v-5.6c0-3.37-4-3.12-4 0v5.6h-3v-11h3v1.77c1.39-2.59 7-2.78 7 2.47v6.76z" fill="#000"/></svg>