<svg width="116" height="144" fill="none" xmlns="http://www.w3.org/2000/svg"><path d="M114.709 57.742a56.686 56.686 0 00-16.652-40.123A56.912 56.912 0 0057.854 1a56.91 56.91 0 00-40.201 16.62A56.685 56.685 0 001 57.741 56.299 56.299 0 0014.93 94.86l42.64 48.088 42.641-48.088a56.301 56.301 0 0014.498-37.12z" fill="#FFC200" stroke="#000" stroke-miterlimit="10"/><path d="M57.948 84.032c14.549 0 26.343-11.77 26.343-26.29s-11.794-26.29-26.343-26.29-26.343 11.77-26.343 26.29 11.794 26.29 26.343 26.29z" fill="#FFC200" stroke="#000" stroke-miterlimit="10"/></svg>