<svg width="305" height="126" fill="none" xmlns="http://www.w3.org/2000/svg"><path d="M170.154 69.984v55.558h12.22V69.984h-12.22zM0 69.978v55.557h12.22V69.978H0zm73.3 0v36.893L41.302 69.978h-12.22v55.557h12.22V88.636L73.3 125.535h12.22V69.978H73.3zm79.706 12.221V69.978h-40.597a13.553 13.553 0 00-13.553 13.554v6.78a13.557 13.557 0 0013.553 13.549h25.935a4.722 4.722 0 013.34 8.064 4.722 4.722 0 01-3.34 1.383H101.13v12.221h40.604a13.548 13.548 0 009.588-3.974 13.545 13.545 0 003.965-9.593v-6.755a13.545 13.545 0 00-3.967-9.589 13.555 13.555 0 00-9.586-3.972h-25.935a4.723 4.723 0 110-9.447h37.207zm151.791-69.972V.007H259.09v55.556h45.707v-12.22H271.31v-9.448h28.184v-12.22H271.31v-9.448h33.487zM195.709.006V55.57h32.609a17.447 17.447 0 0017.448-17.45V17.45A17.447 17.447 0 00228.318 0l-32.609.006zm12.245 43.343V12.252h18.762a6.853 6.853 0 016.855 6.855v17.45a6.853 6.853 0 01-6.855 6.854l-18.762-.062zm96.843 38.85V69.978H259.09v55.557h45.707v-12.221H271.31v-9.447h28.184v-12.22H271.31v-9.448h33.487zM195.709 69.978v55.563h32.609a17.447 17.447 0 0017.448-17.449V87.421a17.447 17.447 0 00-17.448-17.45l-32.609.007zm12.245 43.343V82.199h18.762a6.854 6.854 0 016.855 6.855v17.449a6.852 6.852 0 01-6.855 6.855l-18.762-.037z" fill="#000"/><path d="M51.322.006H13.136C5.88.006 0 5.888 0 13.143v29.284c0 7.255 5.881 13.136 13.136 13.136h38.186c7.255 0 13.136-5.881 13.136-13.136V13.143c0-7.255-5.881-13.137-13.136-13.137z" fill="#FFC200"/><path d="M14.368 24.286H4.504v7.004h9.864v-7.004zM38.927 8.12h-9.864v7.005h9.864V8.12zm0 32.325h-9.864v7.005h9.864v-7.005zm10.4-24.672h-9.864v7.005h9.864v-7.005zm0 16.807h-9.864v7.005h9.864V32.58zm10.619-8.294h-9.864v7.004h9.864v-7.004zm-21.019 0H17.803v7.004h21.124v-7.004zM164.959.006h-19.816a17.447 17.447 0 00-17.448 17.45v20.677a17.451 17.451 0 0017.448 17.45h19.816a17.448 17.448 0 0017.448-17.45V17.449A17.452 17.452 0 00164.959.006zm5.222 36.251a7.098 7.098 0 01-7.091 7.092h-16.077a7.092 7.092 0 01-7.092-7.092V19.32a7.094 7.094 0 017.073-7.067h16.096a7.096 7.096 0 017.091 7.092v16.913zM91.914 12.252h24.44V.006H90.743a17.447 17.447 0 00-17.448 17.45v20.677a17.45 17.45 0 0017.448 17.45h25.611V43.348H91.927a6.393 6.393 0 01-6.394-6.394V18.621a6.394 6.394 0 016.381-6.37z" fill="#000"/></svg>