<svg width="144" height="143" fill="none" xmlns="http://www.w3.org/2000/svg"><path d="M84.651 9.997a4.652 4.652 0 01-1.353-2.108 5.04 5.04 0 011.174-4.838 4.613 4.613 0 012.16-1.256 5.234 5.234 0 012.655 0 5.331 5.331 0 011.96.882c.54.392.982.904 1.293 1.495l-1.346.748a3.275 3.275 0 00-2.191-1.66 3.522 3.522 0 00-1.787 0 2.991 2.991 0 00-1.436.86c-.406.44-.69.979-.822 1.563a3.356 3.356 0 000 1.764c.157.548.465 1.04.89 1.421.449.405.995.689 1.585.823a3.282 3.282 0 002.714-.501l.845 1.316a4.381 4.381 0 01-1.847.747 5.331 5.331 0 01-2.161-.104 5.235 5.235 0 01-2.333-1.152zm13.721.808l-1.6-.748-1.608 3.634-1.578-.703L97.4 4.374l1.578.703-1.6 3.642 1.652.747 4.068-2.512 1.697.748-4.786 2.87 1.085 5.796-1.81-.8-.912-4.763zm11.298 8.539l-3.896-2.64-1.996 1.279-1.496-1.01 8.794-5.42 1.428.971-1.772 10.185-1.496-1.032.434-2.333zm.291-1.458l.845-4.404-3.776 2.415 2.931 1.989zm14.29 4.733l-6.573 6.73-1.248-1.19 2.482-2.542a7.227 7.227 0 01-2.161-1.413 4.068 4.068 0 01-1.383-2.557 3.186 3.186 0 011.047-2.468l2.093-2.153 1.242 1.211-1.959 2.019a1.947 1.947 0 00-.651 1.495c.078.584.372 1.117.823 1.496a5.484 5.484 0 002.003 1.264l3.044-3.126 1.241 1.234zm1.472 13.766l-2.707-3.859-2.318.486-1.032-1.495 10.147-1.937.987 1.413-5.279 8.89-1.047-1.495 1.249-2.003zm.792-1.264l2.348-3.821-4.382.92 2.034 2.9zm10.193 9.735l-1.339-2.819-7.178 3.403-.748-1.563 7.171-3.41-1.331-2.811 1.339-.636 3.417 7.2-1.331.636zm.986 11.463a2.768 2.768 0 01-1.922 1.495 2.991 2.991 0 01-2.572-.314 4.3 4.3 0 01-1.556-2.475l-1.091-3.895 9.07-2.543.471 1.653-3.073.867.702 2.513c.31.875.299 1.831-.029 2.699zm-3.896-.359a1.735 1.735 0 001.495.165c1.062-.3 1.436-1.144 1.062-2.543l-.606-2.16-3.417.957.606 2.16c.105.563.41 1.068.86 1.421z" fill="#fff"/><path d="M133.095 81.249l6.214.635-4.815-3.627.074-.747 5.384-2.557-6.131-.636.172-1.645 9.369.972-.15 1.436-6.58 3.065 5.817 4.307-.149 1.421-9.377-.95.172-1.674zm-1.906 12.778l-1.398-.433 2.116-6.73 8.973 2.819-2.041 6.52-1.399-.441 1.533-4.89-2.333-.748-1.368 4.337-1.368-.426 1.36-4.345-2.482-.747-1.593 5.084zm-5.779 11.665l-3.073-1.645.748-1.421 1.772.942 3.402-6.378-1.772-.942.748-1.436 3.073 1.645-.195.36c-.254.538-.059 1.106.576 1.719.917.806 1.92 1.508 2.991 2.094l2.587 1.495-3.245 6.094-7.006-3.739-.606 1.212zm4.89-5.481a3.504 3.504 0 01-1.196-1.496l-2.243 4.218 5.697 3.035 1.735-3.252-1.436-.845a21.342 21.342 0 01-2.557-1.66zm-.748 13.317l-1.092 1.323-5.159-4.254 1.936 8.158-1.039 1.256-7.26-5.982 1.091-1.331 5.152 4.255-1.929-8.158 1.039-1.249 7.261 5.982zm-19.001 9.003l3.649-2.991-.658-2.281 1.391-1.136 2.684 9.989-1.331 1.092-9.257-4.599 1.414-1.159 2.108 1.085zm1.316.695l3.986 2.064-1.242-4.307-2.744 2.243zm-8.464 6.019l1.541-.845-1.907-3.484 1.496-.823 4.486 8.27-1.496.823-1.824-3.462-1.615.875-.486 4.755-1.638.883.636-5.541-5.234-2.662 1.735-.95 4.306 2.161zm-5.66 8.779l-1.638.531-2.064-6.364-2.751 7.926-1.548.501-2.901-8.973 1.637-.53 2.057 6.355 2.759-7.911 1.547-.501 2.902 8.966zm-20.675 3.192l3.096-.411-1.047-7.873 1.72-.232 1.047 7.873 3.08-.411.202 1.496-7.88 1.024-.218-1.466z" fill="#575757"/><path d="M60.44 132.842a4.58 4.58 0 011.405 2.064 5.053 5.053 0 01-1.032 4.875 4.657 4.657 0 01-2.13 1.316 5.346 5.346 0 01-2.648.082 5.473 5.473 0 01-1.989-.837 4.371 4.371 0 01-1.338-1.496l1.331-.8a3.306 3.306 0 002.243 1.6c.591.131 1.206.11 1.787-.06a3.087 3.087 0 001.413-.904c.386-.453.644-1 .748-1.586a3.312 3.312 0 00-.067-1.757 2.99 2.99 0 00-.927-1.398 3.487 3.487 0 00-1.608-.748 3.31 3.31 0 00-2.7.576l-.882-1.286a4.326 4.326 0 011.832-.815 5.516 5.516 0 012.154.045 5.23 5.23 0 012.408 1.129zm-13.774-.411l1.623.665 1.495-3.679 1.593.658-3.567 8.749-1.593-.651 1.496-3.649-1.668-.688-4 2.625-1.72-.748 4.71-2.991-1.24-5.757 1.832.747 1.039 4.719zm-11.499-8.218l3.97 2.535 1.952-1.339 1.495.972-8.651 5.653-1.45-.927 1.495-10.229 1.548.987-.36 2.348zm-.255 1.495l-.747 4.427 3.701-2.52-2.953-1.907zm-14.416-4.374l6.385-6.924 1.279 1.174-2.408 2.617c.806.317 1.55.772 2.199 1.346a4.07 4.07 0 011.48 2.528 3.15 3.15 0 01-.98 2.489l-2.033 2.206-1.279-1.174 1.914-2.071a1.941 1.941 0 00.606-1.495 2.386 2.386 0 00-.86-1.496 5.526 5.526 0 00-2.041-1.204l-2.991 3.201-1.271-1.197zm-1.839-13.676l2.804 3.784 2.303-.554 1.077 1.451-10.095 2.206-1.017-1.383 5.033-9.033 1.091 1.495-1.196 2.034zm-.748 1.279l-2.243 3.881 4.36-1.032-2.117-2.849zM7.433 99.44l1.42 2.782 7.074-3.596.793 1.547-7.081 3.597 1.413 2.774-1.324.673-3.611-7.103 1.316-.673zM6.13 88.015a2.773 2.773 0 011.885-1.532 2.992 2.992 0 012.58.239 4.284 4.284 0 011.614 2.43l1.204 3.873-8.972 2.79-.509-1.646 3.05-.942-.747-2.497a3.94 3.94 0 01-.105-2.715zm3.904.247a1.714 1.714 0 00-1.496-.12c-1.092.337-1.42 1.19-1.002 2.543l.666 2.146 3.394-1.055-.665-2.145a2.37 2.37 0 00-.897-1.369z" fill="#fff"/><path d="M10.05 62.981l-6.23-.463 4.921 3.484-.06.748-5.309 2.7 6.147.47-.127 1.645L0 70.818l.105-1.436 6.497-3.238-5.929-4.157.105-1.42 9.399.695-.127 1.72zm1.556-12.846l1.413.404-1.937 6.782-9.062-2.572 1.884-6.618 1.406.397-1.398 4.935 2.355.673 1.241-4.382 1.391.396-1.241 4.375 2.497.71 1.45-5.1zm5.458-11.814l3.125 1.556-.748 1.443-1.794-.898-3.17 6.468 1.794.897-.748 1.459-3.11-1.57.18-.36c.239-.538 0-1.106-.621-1.697A16.355 16.355 0 008.906 43.6L6.25 42.172l3.081-6.176 7.104 3.536.628-1.21zm-4.741 5.608c.538.353.967.847 1.241 1.428l2.131-4.277-5.787-2.886L8.263 41.5l1.495.8a20.82 20.82 0 012.565 1.63zm.382-13.324l1.062-1.354L19 33.364l-2.161-8.106 1.002-1.286 7.432 5.803-1.024 1.376-5.234-4.106 2.146 8.098-1.032 1.242-7.425-5.78zm18.751-9.519l-3.567 3.08.748 2.244-1.368 1.181-2.991-9.9 1.308-1.129 9.377 4.352-1.383 1.196-2.124-1.024zm-1.338-.658l-4.038-1.951 1.36 4.269 2.678-2.318zm8.286-6.251l-1.495.882 1.997 3.425-1.496.867-4.74-8.135 1.495-.867 1.989 3.402 1.555-.905.352-4.77 1.607-.935-.486 5.563 5.331 2.52-1.704.972-4.404-2.019zm5.412-8.92l1.623-.584 2.243 6.311 2.527-8 1.54-.546 3.149 8.883-1.623.575L51.032 5.6l-2.535 7.986-1.495.546-3.186-8.875zm20.586-3.769l-3.08.501 1.263 7.836-1.712.277-1.264-7.836-3.073.493-.232-1.495L64.17 0l.232 1.488z" fill="#575757"/></svg>