<svg width="52" height="52" fill="none" xmlns="http://www.w3.org/2000/svg"><path d="M25.8 50.94c13.929 0 25.22-11.291 25.22-25.22C51.02 11.791 39.73.5 25.8.5 11.871.5.58 11.791.58 25.72c0 13.929 11.291 25.22 25.22 25.22z" stroke="#000" stroke-miterlimit="10"/><path d="M30.78 36.77h5.11l-4.29-5.74a4 4 0 003.73-4v-4a4.051 4.051 0 00-4-4h-17.3v17.78h4.5v-5.72h8.48l3.77 5.68zm-12.3-13.79h11.44a.92.92 0 01.92.92v2.24a.922.922 0 01-.92.92H18.48v-4.08zm18.28-3.7a2.31 2.31 0 100-4.62 2.31 2.31 0 000 4.62z" fill="#000"/></svg>