<svg width="53" height="52" fill="none" xmlns="http://www.w3.org/2000/svg"><path fill-rule="evenodd" clip-rule="evenodd" d="M15.93 25.89c5.78-2.52 9.63-4.187 11.55-5 5.51-2.29 6.65-2.68 7.39-2.7a1.34 1.34 0 01.77.23.84.84 0 01.28.54c.028.26.028.521 0 .78-.3 3.13-1.59 10.73-2.25 14.24-.28 1.49-.82 2-1.35 2-1.15.11-2-.76-3.14-1.49-1.74-1.14-2.73-1.85-4.42-3-2-1.29-.69-2 .43-3.15.29-.3 5.36-4.91 5.45-5.33a.359.359 0 00-.09-.35c-.11-.11-.28-.07-.41 0-.13.07-3 1.88-8.35 5.52a3.74 3.74 0 01-2.15.79 13.734 13.734 0 01-3.08-.73c-1.24-.4-2.23-.61-2.14-1.3.08-.31.57-.68 1.51-1.05z" fill="#000"/><path d="M26.49 50.94c13.929 0 25.22-11.291 25.22-25.22C51.71 11.791 40.419.5 26.49.5 12.561.5 1.27 11.791 1.27 25.72c0 13.929 11.291 25.22 25.22 25.22z" stroke="#000" stroke-miterlimit="10"/></svg>