<svg width="52" height="52" fill="none" xmlns="http://www.w3.org/2000/svg"><path fill-rule="evenodd" clip-rule="evenodd" d="M15.791 26.373c5.677-2.474 9.466-4.115 11.37-4.922 5.413-2.254 6.545-2.648 7.274-2.658.27-.007.536.072.758.227a.83.83 0 01.276.521c.032.255.032.513 0 .768-.286 3.091-1.556 10.573-2.205 14.028-.276 1.457-.818 1.97-1.33 1.97-1.141.098-1.968-.749-3.09-1.467-1.723-1.123-2.688-1.832-4.351-2.954-1.969-1.27-.68-1.969.413-3.11.286-.296 5.277-4.834 5.375-5.248a.422.422 0 00-.089-.344.454.454 0 00-.403 0c-.177.04-2.92 1.85-8.23 5.434a3.671 3.671 0 01-2.116.787 14.35 14.35 0 01-3.032-.718c-1.22-.394-2.185-.61-2.107-1.28.08-.305.562-.66 1.487-1.034z" fill="#fff"/><path d="M26.176 51.034c13.71 0 24.826-11.116 24.826-24.828S39.887 1.378 26.176 1.378 1.35 12.494 1.35 26.206s11.115 24.828 24.826 24.828z" stroke="#fff" stroke-miterlimit="10"/></svg>