<svg width="51" height="52" fill="none" xmlns="http://www.w3.org/2000/svg"><path d="M26.499 34.13c-7.875 0-12.443-5.424-12.63-14.46h3.938c.128 6.625 3.051 9.44 5.374 10.02V19.67h3.731v5.719c2.294-.246 4.696-2.855 5.503-5.72h3.74a11.036 11.036 0 01-5.089 7.206 11.41 11.41 0 015.906 7.256h-4.114a7.148 7.148 0 00-5.995-5.169v5.169h-.364z" fill="#fff"/><path d="M25.435 51.034c13.711 0 24.826-11.116 24.826-24.828S39.146 1.378 25.435 1.378C11.725 1.378.61 12.494.61 26.206s11.115 24.828 24.826 24.828z" stroke="#fff" stroke-miterlimit="10"/></svg>