<svg width="52" height="52" fill="none" xmlns="http://www.w3.org/2000/svg"><path d="M26.77 33.77c-8.05 0-12.64-5.52-12.83-14.7h4c.13 6.74 3.1 9.59 5.46 10.18V19.07h3.79v5.81c2.33-.25 4.77-2.9 5.59-5.81h3.8a11.227 11.227 0 01-5.17 7.33 11.588 11.588 0 016 7.37h-4.18a7.251 7.251 0 00-6.09-5.25v5.25h-.37z" fill="#000"/><path d="M25.72 50.94c13.929 0 25.22-11.291 25.22-25.22C50.94 11.791 39.649.5 25.72.5 11.791.5.5 11.791.5 25.72c0 13.929 11.291 25.22 25.22 25.22z" stroke="#000" stroke-miterlimit="10"/></svg>