<svg width="41" height="27" viewBox="0 0 41 27" fill="none" xmlns="http://www.w3.org/2000/svg">
<path d="M11.0742 1.19202L23.4872 13.6059L11.0742 26.0198" stroke="black" stroke-width="0.89" stroke-miterlimit="10"/>
<path d="M18.7523 23.1158C20.5768 24.7068 22.8207 25.7391 25.2159 26.0892C27.6112 26.4393 30.0566 26.0926 32.2601 25.0903C34.4636 24.0881 36.3321 22.4727 37.6424 20.4371C38.9527 18.4016 39.6495 16.0318 39.6495 13.611C39.6495 11.1901 38.9527 8.82023 37.6424 6.78466C36.3321 4.74909 34.4636 3.13382 32.2601 2.13157C30.0566 1.12932 27.6112 0.782454 25.2159 1.13258C22.8207 1.4827 20.5768 2.51497 18.7523 4.10601" stroke="black" stroke-width="0.89" stroke-miterlimit="10"/>
<path d="M0 13.6058H23.4872" stroke="black" stroke-width="0.89" stroke-miterlimit="10"/>
<path d="M21.679 6.74142C23.0619 5.72764 24.7057 5.13002 26.4168 5.01891C28.128 4.90781 29.8352 5.28783 31.3376 6.11426C32.8401 6.94069 34.0751 8.17913 34.8975 9.6838C35.7198 11.1885 36.0952 12.8967 35.9795 14.6076C35.8637 16.3184 35.2616 17.9605 34.2441 19.3407C33.2266 20.7209 31.8359 21.7817 30.2359 22.3982C28.6358 23.0147 26.8929 23.1613 25.2123 22.8207C23.5318 22.4801 21.9835 21.6665 20.7497 20.4757L27 14L21.679 6.74142Z" fill="#FFC200"/>
</svg>
