<svg id="Слой_3" data-name="Слой 3" xmlns="http://www.w3.org/2000/svg" viewBox="0 0 30.17 26.64"><defs><style>.cls-1,.cls-2{fill:none;stroke:#000;stroke-miterlimit:10;}.cls-1{stroke-width:0.83px;}</style></defs><line class="cls-1" x1="22.45" y1="2.87" x2="26.53" y2="9.9"/><path class="cls-2" d="M25.81,4.26a1.09,1.09,0,1,0-1.88-1.09,1.09,1.09,0,0,0,1.88,1.09Z" transform="translate(-3.16 -2.12)"/><line class="cls-1" x1="27.85" y1="14.68" x2="23.8" y2="21.73"/><path class="cls-2" d="M31.74,16.61a1.09,1.09,0,0,0,0-2.18,1.09,1.09,0,0,0,0,2.18Z" transform="translate(-3.16 -2.12)"/><line class="cls-1" x1="20.72" y1="25.05" x2="12.59" y2="25.08"/><path class="cls-2" d="M24.41,27.72a1.09,1.09,0,1,0,.4-1.49A1.09,1.09,0,0,0,24.41,27.72Z" transform="translate(-3.16 -2.12)"/><line class="cls-1" x1="7.71" y1="23.77" x2="3.61" y2="16.75"/><path class="cls-2" d="M10.66,26.63a1.09,1.09,0,1,0,1.49-.4A1.09,1.09,0,0,0,10.66,26.63Z" transform="translate(-3.16 -2.12)"/><line class="cls-1" x1="2.41" y1="12.31" x2="6.95" y2="5.56"/><path class="cls-2" d="M4.82,14.57a1.09,1.09,0,0,0-1.16,1,1.1,1.1,0,0,0,1,1.17,1.09,1.09,0,0,0,.15-2.18Z" transform="translate(-3.16 -2.12)"/><line class="cls-1" x1="9.93" y1="1.72" x2="18.06" y2="1.69"/><path class="cls-2" d="M12.55,3.3a1.09,1.09,0,0,0-1.89,1.09A1.09,1.09,0,1,0,12.55,3.3Z" transform="translate(-3.16 -2.12)"/><path class="cls-2" d="M19.44,15a1.09,1.09,0,1,0-.39,1.49A1.09,1.09,0,0,0,19.44,15Z" transform="translate(-3.16 -2.12)"/><path class="cls-2" d="M17.63,10.94l-.12.06A7,7,0,0,0,14,15.29l0,.18" transform="translate(-3.16 -2.12)"/><path class="cls-2" d="M19.81,20l.12-.06a7,7,0,0,0,3.47-4.29l.05-.17" transform="translate(-3.16 -2.12)"/><path class="cls-2" d="M17.46,7.4l-.22.12a13.37,13.37,0,0,0-6.63,8.18l-.1.34" transform="translate(-3.16 -2.12)"/><path class="cls-2" d="M20,23.21l.23-.12a13.4,13.4,0,0,0,6.63-8.18l.1-.34" transform="translate(-3.16 -2.12)"/></svg>