<svg width="30" height="36" viewBox="0 0 30 36" fill="none" xmlns="http://www.w3.org/2000/svg">
<path d="M29.4977 35.5936H1V1H22.5972L29.4977 7.90101V35.5936Z" stroke="black" stroke-width="0.75" stroke-miterlimit="10"/>
<path d="M29.4976 7.901H22.5972V1L29.4976 7.901Z" stroke="black" stroke-width="0.75" stroke-linejoin="bevel"/>
<path d="M7.19165 28.0232C7.70268 28.0232 8.11694 27.6089 8.11694 27.0979C8.11694 26.5869 7.70268 26.1726 7.19165 26.1726C6.68063 26.1726 6.26636 26.5869 6.26636 27.0979C6.26636 27.6089 6.68063 28.0232 7.19165 28.0232Z" fill="black"/>
<path d="M12.7043 20.1476C13.2154 20.1476 13.6296 19.7333 13.6296 19.2222C13.6296 18.7112 13.2154 18.2969 12.7043 18.2969C12.1933 18.2969 11.7791 18.7112 11.7791 19.2222C11.7791 19.7333 12.1933 20.1476 12.7043 20.1476Z" fill="black"/>
<path d="M21.4553 20.6101C21.9663 20.6101 22.3806 20.1958 22.3806 19.6848C22.3806 19.1738 21.9663 18.7595 21.4553 18.7595C20.9443 18.7595 20.53 19.1738 20.53 19.6848C20.53 20.1958 20.9443 20.6101 21.4553 20.6101Z" fill="black"/>
<path d="M23.2961 14.8413C23.8072 14.8413 24.2214 14.427 24.2214 13.916C24.2214 13.405 23.8072 12.9907 23.2961 12.9907C22.7851 12.9907 22.3708 13.405 22.3708 13.916C22.3708 14.427 22.7851 14.8413 23.2961 14.8413Z" fill="black"/>
<path d="M7.19189 27.0978L12.7044 19.2221L21.4555 19.6848L23.2963 13.9159" stroke="black" stroke-width="0.75" stroke-linejoin="bevel"/>
<path d="M7 10V25L12 17L20.5 17.5L22 12.5V10H7Z" fill="#FFC200"/>
</svg>
