<svg width="492" height="203" fill="none" xmlns="http://www.w3.org/2000/svg"><path d="M274.28 113.431v89.535h19.693v-89.535H274.28zm-274.217-.01v89.535h19.693v-89.535H.062zm118.128 0v59.455l-51.568-59.455H46.93v89.535h19.693V143.49l51.568 59.466h19.693v-89.535h-19.693zm128.452 19.695v-19.695h-65.426a21.841 21.841 0 00-21.842 21.844v10.927a21.845 21.845 0 0021.842 21.834h41.796a7.615 7.615 0 017.613 7.612 7.61 7.61 0 01-7.613 7.613H163.04v19.695h65.437a21.843 21.843 0 0021.842-21.864v-10.887a21.851 21.851 0 00-6.394-15.452 21.834 21.834 0 00-15.448-6.402H186.68a7.61 7.61 0 110-15.225h59.963zM491.266 20.351V.656h-73.661v89.535h73.661V70.496h-53.968V55.271h45.422V35.577h-45.422V20.35h53.968zM315.464.656v89.545h52.551a28.116 28.116 0 0028.119-28.12V28.766A28.12 28.12 0 00368.015.647l-52.551.01zm19.733 69.85V20.392h30.237a11.048 11.048 0 0111.047 11.048v28.12a11.05 11.05 0 01-11.047 11.048l-30.237-.1zm156.069 62.61v-19.695h-73.661v89.535h73.661v-19.695h-53.968v-15.225h45.422v-19.695h-45.422v-15.225h53.968zm-175.802-19.695v89.545h52.551a28.117 28.117 0 0028.119-28.121v-33.313a28.121 28.121 0 00-28.119-28.121l-52.551.01zm19.733 69.85v-50.155h30.237c2.93 0 5.74 1.164 7.812 3.235a11.051 11.051 0 013.235 7.812v28.121a11.047 11.047 0 01-11.047 11.047l-30.237-.06z" fill="#fff"/><path d="M82.772.656h-61.54C9.54.656.062 10.135.062 21.827V69.02c0 11.693 9.478 21.171 21.17 21.171h61.54c11.691 0 21.169-9.478 21.169-21.17V21.826c0-11.692-9.478-21.17-21.17-21.17z" fill="#FFC200"/><path d="M23.22 39.785H7.323v11.288H23.22V39.785zm39.577-26.053H46.9v11.29h15.897v-11.29zm0 52.094H46.9v11.289h15.897V65.827zm16.761-39.76H63.661v11.288h15.897V26.066zm0 27.086H63.661V64.44h15.897V53.153zM96.67 39.785H80.773v11.288H96.67V39.785zm-33.873 0H28.754v11.288h34.043V39.785z" fill="#000"/><path d="M265.904.656H233.97a28.116 28.116 0 00-28.119 28.121V62.1a28.123 28.123 0 0028.119 28.121h31.934a28.116 28.116 0 0028.119-28.12V28.766A28.123 28.123 0 00265.904.657zm8.416 58.422a11.439 11.439 0 01-11.428 11.43h-25.91a11.43 11.43 0 01-11.428-11.43V31.78a11.43 11.43 0 0111.398-11.389h25.94a11.438 11.438 0 0111.428 11.43v27.256zM148.188 20.391h39.386V.656H146.3a28.116 28.116 0 00-28.119 28.121V62.1A28.123 28.123 0 00146.3 90.221h41.274V70.507h-39.366a10.303 10.303 0 01-10.304-10.305V30.655a10.306 10.306 0 0110.284-10.264z" fill="#fff"/></svg>