<svg width="36" height="31" fill="none" xmlns="http://www.w3.org/2000/svg"><path d="M25.87.856H9.196L.856 15.328l8.341 14.471H25.87l8.342-14.471L25.87.856z" stroke="#000" stroke-width=".83" stroke-miterlimit="10"/><path d="M25.703 1.713a.856.856 0 10-.001-1.711.856.856 0 00.001 1.711zm8.509 14.471a.856.856 0 10-.002-1.71.856.856 0 00.002 1.71zm-33.357 0a.856.856 0 10-.002-1.71.856.856 0 00.002 1.71zM9.128 1.713A.856.856 0 109.126.002a.856.856 0 00.002 1.711zm8.41 14.471a.856.856 0 10-.001-1.71.856.856 0 00.001 1.71zm8.411 14.472a.856.856 0 10-.002-1.711.856.856 0 00.002 1.71zm-16.861 0a.856.856 0 10-.001-1.711.856.856 0 00.002 1.71z" fill="#000"/><path d="M9.197.856L25.949 29.8m-16.861 0l8.48-14.472" stroke="#000" stroke-width=".83" stroke-miterlimit="10"/></svg>