<svg width="30" height="36" fill="none" xmlns="http://www.w3.org/2000/svg"><path d="M29.498 35.594H1V1h21.597l6.9 6.901v27.693z" stroke="#000" stroke-width=".75" stroke-miterlimit="10"/><path d="M29.498 7.901h-6.9V1l6.9 6.901z" stroke="#000" stroke-width=".75" stroke-linejoin="bevel"/><path d="M7.192 28.023a.925.925 0 100-1.85.925.925 0 000 1.85zm5.512-7.875a.925.925 0 100-1.851.925.925 0 000 1.85zm8.751.462a.925.925 0 100-1.85.925.925 0 000 1.85zm1.841-5.769a.925.925 0 100-1.85.925.925 0 000 1.85z" fill="#000"/><path d="M7.192 27.098l5.512-7.876 8.751.463 1.841-5.77" stroke="#000" stroke-width=".75" stroke-linejoin="bevel"/></svg>