<svg width="45" height="45" fill="none" xmlns="http://www.w3.org/2000/svg"><g clip-path="url(#clip0_766_68)" fill="#000"><path d="M33.895 11.11a4.248 4.248 0 10-6.006 6.008 4.248 4.248 0 006.006-6.008zm-1.694 4.317a1.846 1.846 0 01-1.316.545 1.86 1.86 0 111.316-.545zM1.196 36.834a1.195 1.195 0 01-.847-2.04l6.91-6.91a1.198 1.198 0 111.694 1.694l-6.91 6.91a1.19 1.19 0 01-.847.346zm1.544 6.622a1.196 1.196 0 01-.847-2.04l7.2-7.201a1.198 1.198 0 111.695 1.694l-7.2 7.2c-.226.224-.53.348-.848.346zM9.36 45a1.196 1.196 0 01-.847-2.04l6.91-6.91a1.198 1.198 0 011.694 1.695l-6.91 6.91A1.195 1.195 0 019.36 45z"/><path d="M44.65.35a1.195 1.195 0 00-1.035-.334c-.141.022-3.45.564-7.965 2.29a48.456 48.456 0 00-7.482 3.601 39.373 39.373 0 00-7.564 5.796l-9.016 1.756c-.233.046-.447.16-.615.328l-8.176 8.149a1.196 1.196 0 001.075 2.019l9.223-1.796c-.6 1.18-1.16 2.403-1.683 3.67a1.193 1.193 0 00.26 1.3l2.258 2.259-2.099 2.1a1.2 1.2 0 00.389 1.953 1.198 1.198 0 001.305-.26l2.1-2.1 2.259 2.26a1.196 1.196 0 001.302.261 50.784 50.784 0 003.67-1.684l-1.808 9.216a1.194 1.194 0 002.019 1.072l8.146-8.176a1.19 1.19 0 00.328-.614l1.756-9.025a39.427 39.427 0 005.789-7.564 48.52 48.52 0 003.601-7.483c1.724-4.518 2.268-7.826 2.29-7.965A1.196 1.196 0 0044.65.35zM7.258 20.86l5.14-5.125 5.532-1.076a40.862 40.862 0 00-3.335 4.772l-7.337 1.43zm22.007 11.741l-5.125 5.14 1.428-7.341a40.851 40.851 0 004.772-3.335l-1.075 5.536zM40.44 8.554c-1.51 3.935-4.291 9.608-8.974 14.291a37.017 37.017 0 01-7.5 5.73 1.11 1.11 0 00-.141.087 45.353 45.353 0 01-4.83 2.423L17.3 29.39l3.414-3.412a1.198 1.198 0 10-1.695-1.694l-3.406 3.412-1.695-1.694a45.651 45.651 0 012.417-4.824 1.2 1.2 0 00.085-.141 36.945 36.945 0 015.732-7.502c4.682-4.683 10.355-7.464 14.29-8.972a47.392 47.392 0 015.81-1.817 47.571 47.571 0 01-1.813 5.808z"/></g><defs><clipPath id="clip0_766_68"><path fill="#fff" d="M0 0h45v45H0z"/></clipPath></defs></svg>