<svg width="48" height="41" fill="none" xmlns="http://www.w3.org/2000/svg"><g clip-path="url(#clip0_766_74)" fill="#000"><path d="M42.57 20.966v-.535a7.553 7.553 0 00-2.32-5.418 8.049 8.049 0 00-5.591-2.247h-9.384V9.49a4.977 4.977 0 002.86-1.974 4.71 4.71 0 00.802-3.311 4.78 4.78 0 00-1.651-3.002A5.072 5.072 0 0024 .003a5.071 5.071 0 00-3.285 1.2 4.78 4.78 0 00-1.652 3.002 4.707 4.707 0 00.804 3.31 4.977 4.977 0 002.858 1.975v3.276h-9.383a8.049 8.049 0 00-5.592 2.247 7.553 7.553 0 00-2.32 5.418v.535a6.748 6.748 0 00-3.898 2.246A6.374 6.374 0 000 27.349a6.374 6.374 0 001.537 4.134 6.75 6.75 0 003.903 2.24 7.574 7.574 0 002.451 5.169 8.059 8.059 0 005.45 2.114H34.66a8.06 8.06 0 005.45-2.114 7.576 7.576 0 002.452-5.169 6.75 6.75 0 003.902-2.24 6.374 6.374 0 001.538-4.134 6.373 6.373 0 00-1.532-4.137 6.748 6.748 0 00-3.9-2.246zM5.43 31.18a4.15 4.15 0 01-2.084-1.46 3.94 3.94 0 01-.797-2.37c0-.853.28-1.682.797-2.37a4.15 4.15 0 012.085-1.462v7.662zM21.58 4.823a2.3 2.3 0 01.409-1.308 2.414 2.414 0 011.09-.867 2.502 2.502 0 011.404-.134 2.46 2.46 0 011.244.645c.34.33.57.749.664 1.205.094.457.046.93-.139 1.36-.184.43-.495.798-.895 1.056a2.485 2.485 0 01-3.066-.294 2.318 2.318 0 01-.712-1.663zm18.448 28.512a5.12 5.12 0 01-1.572 3.672 5.455 5.455 0 01-3.79 1.523H13.342a5.456 5.456 0 01-3.79-1.523 5.12 5.12 0 01-1.573-3.672v-12.91a5.12 5.12 0 011.573-3.672 5.456 5.456 0 013.79-1.523h21.317a5.456 5.456 0 013.79 1.524 5.12 5.12 0 011.571 3.671l.008 12.91zm2.55-2.166v-7.662a4.15 4.15 0 012.084 1.46 3.94 3.94 0 01.797 2.37 3.94 3.94 0 01-.797 2.37 4.15 4.15 0 01-2.085 1.462z"/><path d="M33.295 20.54c-.744 0-1.472.214-2.092.615-.619.4-1.101.97-1.386 1.637-.285.667-.36 1.4-.214 2.108a3.614 3.614 0 001.03 1.867c.527.51 1.197.858 1.928.999.73.14 1.487.068 2.175-.208a3.742 3.742 0 001.69-1.343c.413-.6.634-1.306.634-2.027 0-.967-.397-1.895-1.103-2.58a3.827 3.827 0 00-2.662-1.068zm0 4.815c-.238 0-.471-.068-.67-.197a1.175 1.175 0 01-.443-.523 1.134 1.134 0 01.261-1.272c.169-.164.384-.275.617-.32a1.24 1.24 0 01.696.067c.22.088.409.238.541.43a1.142 1.142 0 01-.15 1.473 1.225 1.225 0 01-.852.342zM14.702 20.54a3.85 3.85 0 00-2.091.615c-.62.4-1.102.97-1.387 1.637-.285.667-.36 1.4-.214 2.108a3.614 3.614 0 001.03 1.867c.527.51 1.198.858 1.928.999.73.14 1.487.068 2.175-.208a3.742 3.742 0 001.69-1.343c.414-.6.634-1.306.634-2.027 0-.967-.396-1.895-1.102-2.58a3.827 3.827 0 00-2.663-1.068zm0 4.815a1.233 1.233 0 01-.667-.2 1.174 1.174 0 01-.44-.525 1.132 1.132 0 01-.066-.674c.048-.226.163-.433.332-.596a1.24 1.24 0 011.312-.25c.22.089.407.238.54.43a1.141 1.141 0 01-.154 1.476 1.24 1.24 0 01-.857.34zm12.771 6.311h-6.948c-.33.011-.644.146-.874.376-.23.23-.358.539-.358.86 0 .32.128.627.358.858.23.23.543.365.874.376h6.947c.33-.01.643-.146.873-.376a1.214 1.214 0 000-1.718 1.295 1.295 0 00-.873-.376h.001z"/></g><defs><clipPath id="clip0_766_74"><path fill="#fff" d="M0 0h48v41H0z"/></clipPath></defs></svg>