<svg width="39" height="35" fill="none" xmlns="http://www.w3.org/2000/svg"><path d="M27.887 29l.677-.736a1 1 0 00-.677-.264v1zm4.523 4.154l-.677.737a1 1 0 001.677-.737h-1zm0-4.168l-.067-.998a1 1 0 00-.933.998h1zM2 7a5 5 0 015-5V0a7 7 0 00-7 7h2zm0 16V7H0v16h2zm5 5a5 5 0 01-5-5H0a7 7 0 007 7v-2zm20.887 0H7v2h20.887v-2zm5.2 4.418l-4.523-4.154-1.353 1.473 4.522 4.154 1.353-1.473zm-1.677-3.432v4.168h2v-4.168h-2zM37 23a5 5 0 01-4.657 4.988l.134 1.996A7 7 0 0039 23h-2zm0-16v16h2V7h-2zm-5-5a5 5 0 015 5h2a7 7 0 00-7-7v2zM7 2h25V0H7v2z" fill="#000"/><circle cx="23.484" cy="10.883" r=".883" fill="#000"/><circle cx="14.061" cy="10.883" r=".883" fill="#000"/><path d="M26 17a9.885 9.885 0 01-3.212 2.22A9.612 9.612 0 0119 20c-1.3 0-2.587-.265-3.788-.78A9.885 9.885 0 0112 17" stroke="#000" stroke-width="2" stroke-linecap="round" stroke-linejoin="round"/></svg>