<?xml version="1.0" encoding="UTF-8"?>
<svg width="800" height="600" viewBox="0 0 800 600" xmlns="http://www.w3.org/2000/svg">
    <!-- Neural Network Visualization -->
    <g transform="translate(100, 50)">
        <!-- Nodes -->
        <circle cx="100" cy="100" r="20" fill="#007AFF" opacity="0.8"/>
        <circle cx="100" cy="200" r="20" fill="#007AFF" opacity="0.8"/>
        <circle cx="100" cy="300" r="20" fill="#007AFF" opacity="0.8"/>
        
        <circle cx="300" cy="150" r="20" fill="#007AFF" opacity="0.8"/>
        <circle cx="300" cy="250" r="20" fill="#007AFF" opacity="0.8"/>
        
        <circle cx="500" cy="200" r="20" fill="#007AFF" opacity="0.8"/>
        
        <!-- Connections -->
        <line x1="120" y1="100" x2="280" y2="150" stroke="#007AFF" stroke-width="2" opacity="0.5"/>
        <line x1="120" y1="100" x2="280" y2="250" stroke="#007AFF" stroke-width="2" opacity="0.5"/>
        <line x1="120" y1="200" x2="280" y2="150" stroke="#007AFF" stroke-width="2" opacity="0.5"/>
        <line x1="120" y1="200" x2="280" y2="250" stroke="#007AFF" stroke-width="2" opacity="0.5"/>
        <line x1="120" y1="300" x2="280" y2="150" stroke="#007AFF" stroke-width="2" opacity="0.5"/>
        <line x1="120" y1="300" x2="280" y2="250" stroke="#007AFF" stroke-width="2" opacity="0.5"/>
        
        <line x1="320" y1="150" x2="480" y2="200" stroke="#007AFF" stroke-width="2" opacity="0.5"/>
        <line x1="320" y1="250" x2="480" y2="200" stroke="#007AFF" stroke-width="2" opacity="0.5"/>
        
        <!-- Animated Pulse -->
        <circle cx="100" cy="100" r="25" fill="none" stroke="#007AFF" opacity="0.3">
            <animate attributeName="r" values="20;30;20" dur="2s" repeatCount="indefinite"/>
            <animate attributeName="opacity" values="0.8;0;0.8" dur="2s" repeatCount="indefinite"/>
        </circle>
        <circle cx="500" cy="200" r="25" fill="none" stroke="#007AFF" opacity="0.3">
            <animate attributeName="r" values="20;30;20" dur="2s" repeatCount="indefinite"/>
            <animate attributeName="opacity" values="0.8;0;0.8" dur="2s" repeatCount="indefinite"/>
        </circle>
    </g>
    
    <!-- Data Flow Animation -->
    <g>
        <circle cx="0" cy="0" r="5" fill="#007AFF">
            <animateMotion path="M100,150 C200,100 300,200 400,150" dur="3s" repeatCount="indefinite"/>
        </circle>
        <circle cx="0" cy="0" r="5" fill="#007AFF">
            <animateMotion path="M100,250 C200,300 300,200 400,250" dur="2s" repeatCount="indefinite"/>
        </circle>
    </g>
</svg>
