<svg width="67" height="43" viewBox="0 0 67 43" fill="none" xmlns="http://www.w3.org/2000/svg">
<path d="M36.8004 42.0057C14.1174 42.0057 1.18381 26.4511 0.648438 0.583984H11.9195C12.2858 19.5757 20.6546 27.6055 27.3046 29.268V0.583984H37.9838V16.954C44.5492 16.2496 51.4247 8.78369 53.7352 0.583984H64.4427C63.564 4.84294 61.8169 8.87376 59.3104 12.4274C56.8039 15.9811 53.592 18.9815 49.8749 21.2384C54.0005 23.3086 57.6403 26.2277 60.5545 29.8073C63.4687 33.3869 65.5911 37.546 66.7815 42.0057H55.0033C53.9219 38.1218 51.7154 34.6439 48.6617 32.0114C45.6081 29.379 41.8439 27.7098 37.843 27.2124V42.0057H36.8004Z" fill="black"/>
</svg>
