<svg width="40" height="32" viewBox="0 0 40 32" fill="none" xmlns="http://www.w3.org/2000/svg">
<path d="M38.8081 1H1V31.5082H38.8081V1Z" stroke="black" stroke-width="0.89" stroke-miterlimit="10"/>
<path d="M1 9.19067H38.8081" stroke="black" stroke-width="0.89" stroke-miterlimit="10"/>
<path d="M5.58848 6.55249C6.09856 6.55249 6.51207 6.13814 6.51207 5.62701C6.51207 5.11589 6.09856 4.70154 5.58848 4.70154C5.07839 4.70154 4.66489 5.11589 4.66489 5.62701C4.66489 6.13814 5.07839 6.55249 5.58848 6.55249Z" fill="black"/>
<path d="M10.285 6.55249C10.7951 6.55249 11.2086 6.13814 11.2086 5.62701C11.2086 5.11589 10.7951 4.70154 10.285 4.70154C9.77491 4.70154 9.3614 5.11589 9.3614 5.62701C9.3614 6.13814 9.77491 6.55249 10.285 6.55249Z" fill="black"/>
<path d="M14.9914 6.55249C15.5015 6.55249 15.915 6.13814 15.915 5.62701C15.915 5.11589 15.5015 4.70154 14.9914 4.70154C14.4813 4.70154 14.0678 5.11589 14.0678 5.62701C14.0678 6.13814 14.4813 6.55249 14.9914 6.55249Z" fill="black"/>
<rect x="5" y="13" width="29" height="14" fill="#FFC200"/>
</svg>
