<svg width="37" height="31" viewBox="0 0 37 31" fill="none" xmlns="http://www.w3.org/2000/svg">
<path d="M26.8663 0.856445H10.1926L1.85083 15.3279L10.1926 29.7994H26.8663L35.2081 15.3279L26.8663 0.856445Z" stroke="black" stroke-width="0.83" stroke-miterlimit="10"/>
<path d="M26.6993 1.71301C27.1714 1.71301 27.5541 1.32954 27.5541 0.856506C27.5541 0.383471 27.1714 0 26.6993 0C26.2272 0 25.8445 0.383471 25.8445 0.856506C25.8445 1.32954 26.2272 1.71301 26.6993 1.71301Z" fill="black"/>
<path d="M35.208 16.1844C35.6801 16.1844 36.0628 15.801 36.0628 15.3279C36.0628 14.8549 35.6801 14.4714 35.208 14.4714C34.736 14.4714 34.3533 14.8549 34.3533 15.3279C34.3533 15.801 34.736 16.1844 35.208 16.1844Z" fill="black"/>
<path d="M1.85092 16.1844C2.32303 16.1844 2.70575 15.801 2.70575 15.3279C2.70575 14.8549 2.32303 14.4714 1.85092 14.4714C1.37881 14.4714 0.996094 14.8549 0.996094 15.3279C0.996094 15.801 1.37881 16.1844 1.85092 16.1844Z" fill="black"/>
<path d="M10.1238 1.71301C10.5959 1.71301 10.9786 1.32954 10.9786 0.856506C10.9786 0.383471 10.5959 0 10.1238 0C9.65174 0 9.26904 0.383471 9.26904 0.856506C9.26904 1.32954 9.65174 1.71301 10.1238 1.71301Z" fill="black"/>
<path d="M18.5345 16.1844C19.0066 16.1844 19.3893 15.801 19.3893 15.3279C19.3893 14.8549 19.0066 14.4714 18.5345 14.4714C18.0624 14.4714 17.6797 14.8549 17.6797 15.3279C17.6797 15.801 18.0624 16.1844 18.5345 16.1844Z" fill="black"/>
<path d="M26.9449 30.6559C27.417 30.6559 27.7997 30.2724 27.7997 29.7994C27.7997 29.3264 27.417 28.943 26.9449 28.943C26.4728 28.943 26.0901 29.3264 26.0901 29.7994C26.0901 30.2724 26.4728 30.6559 26.9449 30.6559Z" fill="black"/>
<path d="M10.0845 30.6559C10.5566 30.6559 10.9393 30.2724 10.9393 29.7994C10.9393 29.3264 10.5566 28.943 10.0845 28.943C9.61244 28.943 9.22974 29.3264 9.22974 29.7994C9.22974 30.2724 9.61244 30.6559 10.0845 30.6559Z" fill="black"/>
<path d="M10.1926 0.856445L26.9449 29.7994" stroke="black" stroke-width="0.83" stroke-miterlimit="10"/>
<path d="M10.0845 29.7994L18.5638 15.3279" stroke="black" stroke-width="0.83" stroke-miterlimit="10"/>
<path d="M25.5 3.5H14L27 25L32.5 15.5L25.5 3.5Z" fill="#FFC200"/>
</svg>
