<svg width="63" height="63" viewBox="0 0 63 63" fill="none" xmlns="http://www.w3.org/2000/svg">
<path fill-rule="evenodd" clip-rule="evenodd" d="M31.0761 0.421875C24.9353 0.421875 18.9324 2.24202 13.8265 5.65368C8.72056 9.06535 4.74076 13.9151 2.39077 19.5885C0.0407688 25.2619 -0.57406 31.5047 0.623958 37.5276C1.82198 43.5504 4.77917 49.0824 9.1214 53.4246C13.4636 57.7668 18.9958 60.724 25.0187 61.9221C31.0415 63.1201 37.2846 62.5055 42.958 60.1555C48.6314 57.8055 53.4804 53.8257 56.8921 48.7198C60.3037 43.6139 62.1246 37.6122 62.1246 31.4714C62.1246 23.2368 58.8536 15.3389 53.0309 9.51616C47.2081 3.69341 39.3107 0.421875 31.0761 0.421875ZM29.87 44.8174H24.8827V34.5973C24.9476 33.3095 24.8514 32.0188 24.5965 30.7548C24.4287 30.2189 24.0731 29.7618 23.595 29.4673C23.0597 29.1235 22.4319 28.9518 21.7962 28.9762C21.01 28.9621 20.2365 29.1746 19.5683 29.5891C18.8969 30.0317 18.393 30.6869 18.1373 31.4494C17.7849 32.6425 17.633 33.8874 17.6877 35.1303V44.7575H12.7004V17.4068H17.7286V27.9542C18.7424 26.6347 20.1724 25.6979 21.7865 25.2934C23.4005 24.889 25.1039 25.041 26.6201 25.7266C27.4322 26.1034 28.1354 26.6808 28.6641 27.4033C29.1282 28.0828 29.4545 28.8459 29.6247 29.6509C29.8208 30.9151 29.9028 32.1946 29.87 33.4735V44.8174ZM49.5539 44.8174H44.5666V34.5973C44.6315 33.3095 44.5353 32.0188 44.2804 30.7548C44.0976 30.2269 43.7455 29.7744 43.2789 29.4673C42.7362 29.1231 42.1018 28.9515 41.4596 28.9762C40.6804 28.9661 39.9146 29.1784 39.2522 29.5891C38.5808 30.0317 38.0769 30.6869 37.8212 31.4494C37.4688 32.6425 37.3169 33.8874 37.3716 35.1303V44.7575H32.3843V17.4068H37.3716V27.9542C38.382 26.6364 39.8084 25.6999 41.419 25.2954C43.0295 24.8909 44.7294 25.0425 46.2426 25.7266C47.0547 26.1034 47.7579 26.6808 48.2866 27.4033C48.7591 28.0782 49.0864 28.843 49.2475 29.6509C49.4632 30.913 49.5522 32.1937 49.5132 33.4735L49.5539 44.8174Z" fill="#130E09"/>
</svg>
