<svg width="87" height="86" viewBox="0 0 87 86" fill="none" xmlns="http://www.w3.org/2000/svg">
<path d="M68.3115 0.826416H18.6848C13.9841 0.826416 9.4756 2.69508 6.15174 6.01894C2.82787 9.34281 0.960938 13.8496 0.960938 18.5502V68.177C0.960938 72.8776 2.82787 77.3844 6.15174 80.7083C9.4756 84.0321 13.9841 85.9008 18.6848 85.9008H68.3115C73.0122 85.9008 77.5202 84.0321 80.8441 80.7083C84.168 77.3844 86.0353 72.8776 86.0353 68.177V18.5502C86.0353 13.8496 84.168 9.34281 80.8441 6.01894C77.5202 2.69508 73.0122 0.826416 68.3115 0.826416ZM29.3191 68.177H18.6848V29.1845H29.3191V68.177ZM24.0019 24.6844C22.7566 24.6984 21.5349 24.3386 20.4931 23.6562C19.4512 22.9738 18.636 21.9995 18.1512 20.8523C17.6665 19.705 17.5344 18.4367 17.7713 17.214C18.0082 15.9913 18.6037 14.8674 19.4818 13.9843C20.36 13.1011 21.4812 12.5008 22.7025 12.2569C23.9238 12.013 25.1899 12.1387 26.3399 12.6169C27.4898 13.0951 28.4715 13.9052 29.1598 14.9432C29.8482 15.9811 30.2122 17.1975 30.2053 18.4429C30.2099 19.2605 30.0528 20.0713 29.7431 20.828C29.4335 21.5848 28.9774 22.2733 28.4009 22.8531C27.8244 23.4329 27.1389 23.8927 26.384 24.2066C25.629 24.5206 24.8195 24.6844 24.0019 24.6844ZM71.8563 68.177H61.222V48.3277C61.222 36.3818 47.0429 37.268 47.0429 48.3277V68.177H36.4086V29.1845H47.0429V35.4606C51.9701 26.2796 71.8563 25.6052 71.8563 44.2152V68.177Z" fill="black"/>
</svg>
