<svg width="50" height="41" viewBox="0 0 50 41" fill="none" xmlns="http://www.w3.org/2000/svg">
<path d="M38.3753 40.6182H49.8945L40.2239 27.6785C42.5083 27.5239 44.6482 26.5066 46.2097 24.8321C47.7712 23.1576 48.6373 20.9512 48.632 18.6616V9.64478C48.6028 7.26245 47.6434 4.9851 45.9587 3.30041C44.274 1.61571 41.9975 0.657164 39.6152 0.62793H0.617188V40.7063H10.7611V27.8128H29.8771L38.3753 40.6182ZM10.6486 9.53251H36.4367C36.9867 9.53251 37.5141 9.74897 37.9031 10.1379C38.292 10.5268 38.5106 11.0562 38.5106 11.6062V16.654C38.5106 17.204 38.292 17.7334 37.9031 18.1223C37.5141 18.5112 36.9867 18.7277 36.4367 18.7277H10.6486V9.53251Z" fill="black"/>
</svg>
