<svg width="81" height="68" viewBox="0 0 81 68" fill="none" xmlns="http://www.w3.org/2000/svg">
<path fill-rule="evenodd" clip-rule="evenodd" d="M5.93981 29.3878C27.6011 19.9438 42.0297 13.6977 49.2251 10.6496C69.8746 2.06756 74.1467 0.608915 76.9199 0.533962C77.9474 0.519292 78.9546 0.81824 79.8057 1.39401C80.396 1.91381 80.7705 2.6359 80.8551 3.41788C80.9613 4.38937 80.9613 5.37056 80.8551 6.34206C79.7309 18.0721 74.8964 46.555 72.423 59.7092C71.3736 65.2932 69.3498 67.2044 67.3635 67.2044C63.0538 67.6167 59.8682 64.3554 55.5959 61.6196C49.075 57.3473 45.3649 54.6865 39.0314 50.3767C31.5362 45.5423 36.4456 42.88 40.6429 38.5702C41.7297 37.4459 60.7303 20.1691 61.0675 18.595C61.1319 18.3661 61.1345 18.1264 61.0753 17.896C61.0161 17.6657 60.897 17.4543 60.7302 17.2848C60.3179 16.8726 59.6809 17.0225 59.1937 17.2848C58.7065 17.5472 47.9509 24.3286 27.9011 37.97C25.591 39.7753 22.7729 40.8109 19.8436 40.9308C15.9034 40.4669 12.0301 39.5508 8.30083 38.1969C3.65377 36.6979 -0.0562092 35.9116 0.281078 33.3257C0.580888 32.164 2.41703 30.7744 5.93981 29.3878Z" fill="black"/>
</svg>
